<?xml version="1.0" encoding="UTF-8" standalone="no"?>
<svg
   xmlns:dc="http://purl.org/dc/elements/1.1/"
   xmlns:cc="http://creativecommons.org/ns#"
   xmlns:rdf="http://www.w3.org/1999/02/22-rdf-syntax-ns#"
   xmlns:svg="http://www.w3.org/2000/svg"
   xmlns="http://www.w3.org/2000/svg"
   xmlns:sodipodi="http://sodipodi.sourceforge.net/DTD/sodipodi-0.dtd"
   xmlns:inkscape="http://www.inkscape.org/namespaces/inkscape"
   version="1.1"
   id="svg2"
   xml:space="preserve"
   width="396.85037"
   height="103.93701"
   viewBox="0 0 396.85037 103.93701"
   sodipodi:docname="EMC_ACI.svg"
   inkscape:version="1.0.1 (1.0.1+r73)"><metadata
     id="metadata8"><rdf:RDF><cc:Work
         rdf:about=""><dc:format>image/svg+xml</dc:format><dc:type
           rdf:resource="http://purl.org/dc/dcmitype/StillImage" /><dc:title></dc:title></cc:Work></rdf:RDF></metadata><defs
     id="defs6"><clipPath
       clipPathUnits="userSpaceOnUse"
       id="clipPath26"><path
         d="M 0,0 H 298 V 78 H 0 Z"
         id="path24" /></clipPath><clipPath
       clipPathUnits="userSpaceOnUse"
       id="clipPath30"><path
         d="m 31.605,43.637 h 45.75 v 14.316 h -45.75 z"
         id="path28" /></clipPath><clipPath
       clipPathUnits="userSpaceOnUse"
       id="clipPath34"><path
         d="M 0,0 H 298 V 78 H 0 Z"
         id="path32" /></clipPath><clipPath
       clipPathUnits="userSpaceOnUse"
       id="clipPath38"><path
         d="m 31.605,27.191 h 45.75 v 14.316 h -45.75 z"
         id="path36" /></clipPath><clipPath
       clipPathUnits="userSpaceOnUse"
       id="clipPath42"><path
         d="M 0,0 H 298 V 78 H 0 Z"
         id="path40" /></clipPath></defs><sodipodi:namedview
     pagecolor="#ffffff"
     bordercolor="#666666"
     borderopacity="1"
     objecttolerance="10"
     gridtolerance="10"
     guidetolerance="10"
     inkscape:pageopacity="0"
     inkscape:pageshadow="2"
     inkscape:window-width="1920"
     inkscape:window-height="1016"
     id="namedview4"
     showgrid="false"
     inkscape:zoom="3.1674406"
     inkscape:cx="198.42519"
     inkscape:cy="51.968506"
     inkscape:window-x="0"
     inkscape:window-y="27"
     inkscape:window-maximized="1"
     inkscape:current-layer="g10" /><g
     id="g10"
     inkscape:groupmode="layer"
     inkscape:label="EMC_ACI"
     transform="scale(1.3333333)"><g
       id="g12"><text
         transform="translate(86.786126,35.146287)"
         style="font-variant:normal;font-weight:bold;font-size:17.5213px;font-family:'DejaVu Sans';-inkscape-font-specification:DejaVuSans-Bold;writing-mode:lr-tb;fill:#211915;fill-opacity:1;fill-rule:nonzero;stroke:none"
         id="text18"><tspan
           x="0 12.965761 24.599903 36.234047 41.069923 45.888283 56.506187 68.175377 72.695869 82.472755 93.511169 111.43546 123.0696 134.65118 141.83492 152.19 159.37373 164.19209 175.23051 186.8997 197.25479"
           y="0"
           sodipodi:role="line"
           id="tspan14">Applied computational</tspan><tspan
           x="0 4.818357 16.47002 23.355892 33.973801 38.792156 43.628033 48.446392 60.255749 70.873657 82.630447 92.407333"
           y="19.588812"
           sodipodi:role="line"
           id="tspan16">intelligence</tspan></text><g
         id="g20"><g
           id="g22" /><g
           id="g144"><g
             clip-path="url(#clipPath26)"
             id="g142"><g
               id="g104"><path
                 d="m 42.715,24.734 c -2.106,-0.437 -3.531,-1.632 -3.5,-3.902 0.031,-2.152 1.496,-3.133 3.5,-3.074 2.316,0.062 3.547,1.422 3.433,3.75 -0.097,2.074 -1.293,3.168 -3.433,3.226"
                 style="fill:#f8c111;fill-opacity:1;fill-rule:nonzero;stroke:none"
                 id="path44" /><path
                 d="m 24.973,41.918 c -2.442,-0.266 -3.895,-1.449 -4.035,-3.672 -0.141,-2.117 1.21,-3.25 3.257,-3.324 2.321,-0.082 3.66,1.16 3.715,3.488 0.047,2.067 -1.113,3.215 -2.937,3.508"
                 style="fill:#f8c111;fill-opacity:1;fill-rule:nonzero;stroke:none"
                 id="path46" /><path
                 d="m 55.598,21.203 c -0.328,2.277 -1.676,3.539 -3.918,3.504 -2.063,-0.031 -3.336,-1.383 -3.383,-3.379 -0.047,-2.008 1.199,-3.379 3.254,-3.488 2.242,-0.121 3.621,1.113 4.047,3.363"
                 style="fill:#f8c111;fill-opacity:1;fill-rule:nonzero;stroke:none"
                 id="path48" /><path
                 d="m 24.305,50.371 c -2.184,-0.441 -3.547,-1.738 -3.352,-4.043 0.184,-2.183 1.789,-2.976 3.805,-2.808 2.117,0.175 3.219,1.488 3.113,3.578 -0.109,2.132 -1.496,3.093 -3.566,3.273"
                 style="fill:#f8c111;fill-opacity:1;fill-rule:nonzero;stroke:none"
                 id="path50" /><path
                 d="m 27.902,29.262 c -0.07,2.406 -1.16,3.707 -3.214,3.832 -2.051,0.125 -3.469,-1.043 -3.583,-3.102 -0.113,-2.082 1.293,-3.273 3.262,-3.504 2.176,-0.258 3.184,1.09 3.535,2.774"
                 style="fill:#f8c111;fill-opacity:1;fill-rule:nonzero;stroke:none"
                 id="path52" /><path
                 d="m 60.727,24.562 c -1.934,-0.386 -3.27,-1.457 -3.09,-3.535 0.179,-2.019 1.625,-3.113 3.586,-3.117 2.121,-0.004 3.246,1.301 3.027,3.395 -0.207,1.98 -1.496,3.062 -3.523,3.257"
                 style="fill:#f8c111;fill-opacity:1;fill-rule:nonzero;stroke:none"
                 id="path54" /><path
                 d="m 24.125,52.059 c 1.988,0.046 3.52,0.785 3.598,2.949 0.082,2.176 -1.395,3.094 -3.379,3.125 -1.762,0.027 -3.137,-0.824 -3.324,-2.664 -0.223,-2.137 1.117,-3.141 3.105,-3.41"
                 style="fill:#f8c111;fill-opacity:1;fill-rule:nonzero;stroke:none"
                 id="path56" /><path
                 d="m 24.645,24.336 c -2.02,-0.301 -3.352,-1.391 -3.282,-3.481 0.063,-1.89 1.399,-2.875 3.223,-2.75 1.809,0.122 2.992,1.297 3.019,3.114 0.024,1.824 -1.097,2.902 -2.96,3.117"
                 style="fill:#f8c111;fill-opacity:1;fill-rule:nonzero;stroke:none"
                 id="path58" /><path
                 d="m 33.57,24.336 c -2.019,-0.301 -3.351,-1.391 -3.281,-3.481 0.063,-1.89 1.399,-2.875 3.227,-2.75 1.804,0.122 2.992,1.297 3.015,3.114 0.024,1.824 -1.093,2.902 -2.961,3.117"
                 style="fill:#f8c111;fill-opacity:1;fill-rule:nonzero;stroke:none"
                 id="path60" /><path
                 d="m 15.129,35.094 c 1.836,0.109 2.933,1.066 3.047,2.945 0.101,1.664 -0.731,2.742 -2.414,2.863 -1.813,0.129 -3.176,-0.683 -3.387,-2.582 -0.207,-1.879 0.844,-2.957 2.754,-3.226"
                 style="fill:#f8c111;fill-opacity:1;fill-rule:nonzero;stroke:none"
                 id="path62" /><path
                 d="m 15.648,49.5 c -1.812,-0.027 -3.136,-0.801 -3.269,-2.703 -0.133,-1.879 0.93,-3.031 2.828,-3.055 1.891,-0.023 2.902,1.113 2.965,2.977 0.058,1.683 -0.871,2.59 -2.524,2.781"
                 style="fill:#f8c111;fill-opacity:1;fill-rule:nonzero;stroke:none"
                 id="path64" /><path
                 d="m 18.117,55.117 c -0.109,1.66 -0.992,2.703 -2.621,2.805 -1.879,0.121 -3.101,-0.879 -3.098,-2.809 0.004,-1.925 1.231,-2.929 3.11,-2.801 1.621,0.114 2.508,1.157 2.609,2.805"
                 style="fill:#f8c111;fill-opacity:1;fill-rule:nonzero;stroke:none"
                 id="path66" /><path
                 d="m 51.754,9.68 c 1.844,0.121 2.934,1.07 2.934,2.941 0,1.676 -1.024,2.524 -2.661,2.543 -1.554,0.02 -2.82,-0.625 -2.976,-2.281 -0.172,-1.832 0.887,-2.891 2.703,-3.203"
                 style="fill:#f8c111;fill-opacity:1;fill-rule:nonzero;stroke:none"
                 id="path68" /><path
                 d="m 18.133,29.664 c -0.332,1.77 -1.332,2.625 -2.961,2.574 -1.617,-0.047 -2.766,-0.883 -2.668,-2.593 0.105,-1.86 1.328,-2.895 3.18,-2.747 1.636,0.133 2.402,1.282 2.449,2.766"
                 style="fill:#f8c111;fill-opacity:1;fill-rule:nonzero;stroke:none"
                 id="path70" /><path
                 d="m 36.371,12.977 c -0.269,1.66 -1.394,2.304 -2.976,2.16 -1.559,-0.141 -2.723,-0.946 -2.547,-2.664 0.172,-1.684 1.472,-2.289 3.015,-2.231 1.649,0.063 2.532,0.981 2.508,2.735"
                 style="fill:#f8c111;fill-opacity:1;fill-rule:nonzero;stroke:none"
                 id="path72" /><path
                 d="m 43.012,15.18 c -1.637,-0.008 -2.782,-0.7 -2.813,-2.43 -0.035,-1.711 1.035,-2.547 2.696,-2.535 1.585,0.012 2.839,0.726 2.886,2.414 0.043,1.707 -1.195,2.402 -2.769,2.551"
                 style="fill:#f8c111;fill-opacity:1;fill-rule:nonzero;stroke:none"
                 id="path74" /><path
                 d="m 63.973,12.191 c -0.016,2.008 -1.02,2.813 -2.586,2.946 -1.582,0.133 -2.766,-0.516 -2.899,-2.239 -0.133,-1.691 0.848,-2.582 2.481,-2.664 1.57,-0.078 2.609,0.684 3.004,1.957"
                 style="fill:#f8c111;fill-opacity:1;fill-rule:nonzero;stroke:none"
                 id="path76" /><path
                 d="m 17.891,21.113 c -0.059,1.524 -0.911,2.364 -2.278,2.504 -1.593,0.168 -2.836,-0.508 -2.976,-2.234 -0.117,-1.469 0.867,-2.309 2.234,-2.449 1.59,-0.164 2.723,0.527 3.02,2.179"
                 style="fill:#f8c111;fill-opacity:1;fill-rule:nonzero;stroke:none"
                 id="path78" /><path
                 d="m 26.746,12.43 c 0.012,1.57 -0.687,2.535 -2.199,2.519 -1.426,-0.015 -2.383,-0.859 -2.356,-2.347 0.02,-1.192 0.797,-1.985 1.997,-2.141 1.511,-0.195 2.335,0.582 2.558,1.969"
                 style="fill:#f8c111;fill-opacity:1;fill-rule:nonzero;stroke:none"
                 id="path80" /><path
                 d="m 70.273,10.414 c 1.415,0.164 2.391,0.887 2.325,2.359 -0.059,1.454 -1.051,2.215 -2.489,2.153 -1.23,-0.059 -1.925,-0.852 -1.992,-2.055 -0.086,-1.476 0.672,-2.309 2.156,-2.457"
                 style="fill:#f8c111;fill-opacity:1;fill-rule:nonzero;stroke:none"
                 id="path82" /><path
                 d="M 42.746,6.391 C 41.387,6.188 40.441,5.469 40.5,4.043 40.559,2.621 41.48,1.82 42.918,2.012 c 1.406,0.191 2.074,1.164 1.957,2.566 -0.105,1.25 -0.977,1.723 -2.129,1.813"
                 style="fill:#f8c111;fill-opacity:1;fill-rule:nonzero;stroke:none"
                 id="path84" /><path
                 d="M 54.418,4.191 C 54.07,5.734 53.172,6.477 51.719,6.324 50.453,6.191 49.824,5.305 49.98,4.09 c 0.18,-1.442 1.079,-2.25 2.586,-2.051 1.258,0.168 1.739,1.078 1.852,2.152"
                 style="fill:#f8c111;fill-opacity:1;fill-rule:nonzero;stroke:none"
                 id="path86" /><path
                 d="m 6.234,36.141 c 1.571,0.218 2.243,1.007 2.129,2.23 -0.14,1.434 -1.027,2.277 -2.531,2.133 -1.254,-0.121 -1.93,-0.996 -1.859,-2.188 0.089,-1.504 1.152,-2.082 2.261,-2.175"
                 style="fill:#f8c111;fill-opacity:1;fill-rule:nonzero;stroke:none"
                 id="path88" /><path
                 d="M 8.395,46.664 C 8.332,48.09 7.648,49.039 6.238,49.121 4.805,49.203 3.922,48.34 3.984,46.91 c 0.059,-1.406 1.004,-2.168 2.407,-2.152 1.207,0.012 1.863,0.738 2.004,1.906"
                 style="fill:#f8c111;fill-opacity:1;fill-rule:nonzero;stroke:none"
                 id="path90" /><path
                 d="M 36.125,4.039 C 35.988,5.473 35.227,6.305 33.77,6.223 32.578,6.156 31.812,5.383 31.805,4.207 31.793,2.762 32.668,1.945 34.117,2.016 c 1.199,0.054 1.832,0.851 2.008,2.023"
                 style="fill:#f8c111;fill-opacity:1;fill-rule:nonzero;stroke:none"
                 id="path92" /><path
                 d="m 63.047,4.277 c -0.277,1.325 -1.063,2.125 -2.52,1.911 -1.183,-0.176 -1.855,-1.02 -1.769,-2.172 0.105,-1.426 1.027,-2.161 2.48,-1.957 1.2,0.168 1.742,0.992 1.809,2.218"
                 style="fill:#f8c111;fill-opacity:1;fill-rule:nonzero;stroke:none"
                 id="path94" /><path
                 d="m 6.051,31.805 c -1.18,-0.211 -2.059,-0.871 -2.02,-2.078 0.047,-1.489 1.031,-2.247 2.512,-1.981 1.176,0.215 1.836,1.066 1.723,2.289 -0.118,1.293 -1.008,1.766 -2.215,1.77"
                 style="fill:#f8c111;fill-opacity:1;fill-rule:nonzero;stroke:none"
                 id="path96" /><path
                 d="m 15.582,65.543 c -1.195,-0.098 -2.094,-0.566 -2.051,-1.918 0.035,-1.016 0.684,-1.605 1.684,-1.707 1.203,-0.117 2.168,0.352 2.328,1.602 0.168,1.335 -0.797,1.835 -1.961,2.023"
                 style="fill:#f8c111;fill-opacity:1;fill-rule:nonzero;stroke:none"
                 id="path98" /><path
                 d="M 8.121,54.793 C 8.242,56.09 7.66,56.711 6.691,56.875 5.5,57.074 4.547,56.582 4.297,55.352 4.082,54.309 4.777,53.68 5.73,53.469 c 1.258,-0.274 1.954,0.48 2.391,1.324"
                 style="fill:#f8c111;fill-opacity:1;fill-rule:nonzero;stroke:none"
                 id="path100" /><path
                 d="M 70.504,74.398 H 38.461 c -3.77,0 -6.856,-3.086 -6.856,-6.855 v -0.605 c 0,-3.77 3.086,-6.856 6.856,-6.856 h 32.043 c 3.769,0 6.851,3.086 6.851,6.856 v 0.605 c 0,3.769 -3.082,6.855 -6.851,6.855"
                 style="fill:#172b32;fill-opacity:1;fill-rule:nonzero;stroke:none"
                 id="path102" /></g><g
               id="g120"><g
                 clip-path="url(#clipPath30)"
                 id="g118"><g
                   id="g116"><g
                     id="g106" /><g
                     id="g114"><g
                       clip-path="url(#clipPath34)"
                       opacity="0.899994"
                       id="g112"><g
                         id="g110"><path
                           d="M 70.504,57.953 H 38.461 c -3.77,0 -6.856,-3.086 -6.856,-6.855 v -0.606 c 0,-3.769 3.086,-6.855 6.856,-6.855 h 32.043 c 3.769,0 6.851,3.086 6.851,6.855 v 0.606 c 0,3.769 -3.082,6.855 -6.851,6.855"
                           style="fill:#172b32;fill-opacity:1;fill-rule:nonzero;stroke:none"
                           id="path108" /></g></g></g></g></g></g><g
               id="g136"><g
                 clip-path="url(#clipPath38)"
                 id="g134"><g
                   id="g132"><g
                     id="g122" /><g
                     id="g130"><g
                       clip-path="url(#clipPath42)"
                       opacity="0.800003"
                       id="g128"><g
                         id="g126"><path
                           d="M 70.504,41.508 H 38.461 c -3.77,0 -6.856,-3.086 -6.856,-6.856 v -0.605 c 0,-3.77 3.086,-6.856 6.856,-6.856 h 32.043 c 3.769,0 6.851,3.086 6.851,6.856 v 0.605 c 0,3.77 -3.082,6.856 -6.851,6.856"
                           style="fill:#172b32;fill-opacity:1;fill-rule:nonzero;stroke:none"
                           id="path124" /></g></g></g></g></g></g><g
               id="g140"><path
                 d="m 53.996,53.297 h -5.965 c 3.145,-5.922 6.164,-11.621 9.192,-17.317 0.148,0.047 0.297,0.098 0.449,0.149 -0.469,4.016 -1.34,7.98 -1.891,12.078 h 5.559 c 0.125,0.785 -8.238,16.727 -9.242,17.406 0.472,-4.218 1.367,-8.179 1.898,-12.316"
                 style="fill:#f8c111;fill-opacity:1;fill-rule:nonzero;stroke:none"
                 id="path138" /></g></g></g></g><text
         transform="translate(87.81643,74.398178)"
         style="font-variant:normal;font-weight:normal;font-size:14.0311px;font-family:'DejaVu Sans';-inkscape-font-specification:DejaVuSans;writing-mode:lr-tb;fill:#211915;fill-opacity:1;fill-rule:nonzero;stroke:none"
         id="text148"><tspan
           x="0 8.8536243 20.948433 30.74214 35.793335 46.050072 56.545334 60.993191 70.730774 79.584396 88.480118 97.33374 106.93102 115.96704 125.76075 136.29811 140.74597 151.60603 161.34361 172.38609 182.64282"
           y="0"
           sodipodi:role="line"
           id="tspan146">EMC-UN RESEARCH GROUP</tspan></text></g></g></svg>
